<svg xmlns="http://www.w3.org/2000/svg" width="800" height="400">
		<g>	
			<g transform="translate(300, 20)">
				<rect x="0" y="0" fill="#EFF0F3" width="100" height="50"/>
				<text x="22" y="30" font-family="Verdana">main()</text>
			</g>
			
	
			<g transform="translate(420, 20)">
				<text x="0" y="20" font-family="Verdana">x</text>
				<rect x="20" y="0" fill="#EFF0F3" width="70" height="30"/>
	
				<text x="30" y="20" font-family="Verdana">2</text>
				<line x1="30" y1="20" x2="40" y2="10" stroke="black"/>
				<text x="50" y="20" font-family="Verdana">26</text>
				<text x="10" y="50" font-family="Verdana">local variable</text>
	
			</g>
            <g transform="translate(170, 20)">
				<text x="0" y="20" font-family="Verdana">y</text>
				<rect x="20" y="0" fill="#EFF0F3" width="70" height="30"/>
	
				<text x="30" y="20" font-family="Verdana">5</text>
				<line x1="30" y1="20" x2="40" y2="10" stroke="black"/>
				<text x="50" y="20" font-family="Verdana">12</text>
				<text x="10" y="50" font-family="Verdana">local variable</text>
	
			</g>
	
			<line x1="350" y1="80" x2="170" y2="140" stroke="black"/>
			
			<g transform="translate(120, 150)">
				<g transform="translate(-60, 0)">
					<rect x="0" y="0" fill="#EFF0F3" width="200" height="50"/>
					<text x="22" y="30" font-family="Verdana">y = jumble(5, 2)</text>
				</g>
	                <line x1="35" y1="70" x2="35" y2="160" stroke="black" stroke-width="2"/>
	                <text x="28" y="177" font-family="Verdana">12</text>

                <g transform="translate(70, 60)">
                    <text x="0" y="20" font-family="Verdana">x: local</text>
                    <rect x="65" y="0" fill="#EFF0F3" width="45" height="30"/>
                    <text x="70" y="20" font-family="Verdana">5</text>
					<line x1="70" y1="20" x2="80" y2="10" stroke="black"/>
                    <text x="85" y="20" font-family="Verdana">12</text>
                </g>
                 <g transform="translate(70, 100)">
                    <text x="0" y="20" font-family="Verdana">y: local</text>
                    <rect x="65" y="0" fill="#EFF0F3" width="30" height="30"/>
                    <text x="75" y="20" font-family="Verdana">2</text>
                </g>
			</g>
	
			<line x1="350" y1="80" x2="530" y2="140" stroke="black"/>
			<g transform="translate(480, 150)">
				<rect x="-60" y="0" fill="#EFF0F3" width="200" height="50"/>
				<text x="-42" y="30" font-family="Verdana">x = jumble(12, 2)</text>
                <line x1="65" y1="70" x2="65" y2="160" stroke="black" stroke-width="2"/>
                <text x="58" y="177" font-family="Verdana">26</text>
                
                <g transform="translate(-70, 60)">
                    <text x="0" y="20" font-family="Verdana">x: local</text>
                    <rect x="65" y="0" fill="#EFF0F3" width="55" height="30"/>
                    <text x="70" y="20" font-family="Verdana">12</text>
					<line x1="70" y1="20" x2="85" y2="10" stroke="black"/>
                    <text x="95" y="20" font-family="Verdana">26</text>
                </g>
                 <g transform="translate(-70, 100)">
                    <text x="0" y="20" font-family="Verdana">y: local</text>
                    <rect x="65" y="0" fill="#EFF0F3" width="30" height="30"/>
                    <text x="75" y="20" font-family="Verdana">2</text>
                </g>
			</g>
		</g>

	</svg>