<svg xmlns="http://www.w3.org/2000/svg" width="1000" height="900">
		<g transform="translate(150, 0)">	
			<g transform="translate(300, 20)">
				<rect x="0" y="0" fill="#EFF0F3" width="100" height="50"/>
				<text x="30" y="30" font-family="Verdana">T(n)</text>
			</g>
			<text x="760" y="48" font-family="Verdana"> ..... 1 call</text>

			<g transform="translate(300, 150)">
				<rect x="0" y="0" fill="#EFF0F3" width="100" height="50"/>
				<text x="45" y="30" font-family="Verdana">1</text>
			</g> 
			<line x1="350" y1="80" x2="150" y2="140" stroke="black" stroke-width="3"/>
			<line x1="350" y1="80" x2="350" y2="140" stroke="black"/>
			<line x1="350" y1="80" x2="550" y2="140" stroke="black"/>

			<text x="760" y="180" font-family="Verdana"> ..... 2 calls</text>
		</g>
		<g transform="translate(-50, 130)">	
			<g transform="translate(300, 20)">
				<rect x="0" y="0" fill="#EFF0F3" width="100" height="50"/>
				<text x="25" y="30" font-family="Verdana">T(n-1)</text>
			</g>
	
			<line x1="350" y1="80" x2="210" y2="140" stroke="black"/>
			
			<g transform="translate(160, 150)">
				<rect x="0" y="0" fill="#EFF0F3" width="100" height="50"/>
				<text x="25" y="30" font-family="Verdana">T(n-4)</text>
			</g>
	
			<line x1="350" y1="80" x2="350" y2="140" stroke="black"/>
			<g transform="translate(300, 150)">
				<rect x="0" y="0" fill="#EFF0F3" width="100" height="50"/>
				<text x="45" y="30" font-family="Verdana">1</text>
			</g>
	 
			<line x1="350" y1="80" x2="490" y2="140" stroke="black" stroke-width="3"/>
			<text x="960" y="180" font-family="Verdana"> ..... 4 calls</text>

		</g>
		<g transform="translate(350, 130)">	
			<g transform="translate(300, 20)">
				<rect x="0" y="0" fill="#EFF0F3" width="100" height="50"/>
				<text x="25" y="30" font-family="Verdana">T(n-3)</text>
			</g>
	
			<line x1="350" y1="80" x2="210" y2="140" stroke="black"/>
			
			<g transform="translate(160, 150)">
				<rect x="0" y="0" fill="#EFF0F3" width="100" height="50"/>
				<text x="25" y="30" font-family="Verdana">T(n-4)</text>
			</g>
	
			<line x1="350" y1="80" x2="350" y2="140" stroke="black"/>
			<g transform="translate(300, 150)">
				<rect x="0" y="0" fill="#EFF0F3" width="100" height="50"/>
				<text x="45" y="30" font-family="Verdana">1</text>
			</g>
	
			<line x1="350" y1="80" x2="490" y2="140" stroke="black"/>
			<g transform="translate(440, 150)">
				<rect x="0" y="0" fill="#EFF0F3" width="100" height="50"/>
				<text x="25" y="30" font-family="Verdana">T(n-6)</text>
			</g>
		</g>
		<g transform="translate(90, 260)">	
			<g transform="translate(300, 20)">
				<rect x="0" y="0" fill="#EFF0F3" width="100" height="50"/>
				<text x="25" y="30" font-family="Verdana">T(n-2)</text>
			</g>
	
			<line x1="350" y1="80" x2="210" y2="140" stroke="black"/>
			
			<g transform="translate(160, 150)">
				<rect x="0" y="0" fill="#EFF0F3" width="100" height="50"/>
				<text x="25" y="30" font-family="Verdana">T(n-5)</text>
			</g>
	
			<line x1="350" y1="80" x2="350" y2="140" stroke="black"/>
			<g transform="translate(300, 150)">
				<rect x="0" y="0" fill="#EFF0F3" width="100" height="50"/>
				<text x="45" y="30" font-family="Verdana">1</text>
			</g>
	
			<line x1="350" y1="80" x2="490" y2="140" stroke="black" stroke-width="3"/>
		</g>
		<g transform="translate(230, 390)">	
			<g transform="translate(300, 20)">
				<rect x="0" y="0" fill="#EFF0F3" width="100" height="50"/>
				<text x="25" y="30" font-family="Verdana">T(n-3)</text>
			</g>
	
			<line x1="350" y1="80" x2="210" y2="140" stroke="black" stroke-width="3"/>
	
			<line x1="350" y1="80" x2="350" y2="140" stroke="black"/>
			<g transform="translate(300, 150)">
				<rect x="0" y="0" fill="#EFF0F3" width="100" height="50"/>
				<text x="45" y="30" font-family="Verdana">1</text>
			</g>
	
			<line x1="350" y1="80" x2="490" y2="140" stroke="black"/>
			<g transform="translate(440, 150)">
				<rect x="0" y="0" fill="#EFF0F3" width="100" height="50"/>
				<text x="25" y="30" font-family="Verdana">T(n-6)</text>
			</g>
		</g>
		<g transform="translate(90, 520)">	
			<g transform="translate(300, 20)">
				<rect x="0" y="0" fill="#EFF0F3" width="100" height="50"/>
				<text x="25" y="30" font-family="Verdana">T(n-4)</text>
			</g>
	
			<line x1="350" y1="80" x2="210" y2="140" stroke="black" stroke-width="3"/>
			
			<g transform="translate(160, 150)">
				<rect x="0" y="0" fill="#EFF0F3" width="100" height="50"/>
				<text x="25" y="30" font-family="Verdana">T(n-5)</text>
			</g>
	
			<line x1="350" y1="80" x2="350" y2="140" stroke="black"/>
			<g transform="translate(300, 150)">
				<rect x="0" y="0" fill="#EFF0F3" width="100" height="50"/>
				<text x="45" y="30" font-family="Verdana">1</text>
			</g>
	
			<line x1="350" y1="80" x2="490" y2="140" stroke="black"/>
			<g transform="translate(440, 150)">
				<rect x="0" y="0" fill="#EFF0F3" width="100" height="50"/>
				<text x="25" y="30" font-family="Verdana">T(n-7)</text>
			</g>
		</g>
		<g transform="translate(-50, 780)">	
			<g transform="translate(300, 20)">
				<rect x="0" y="0" fill="#EFF0F3" width="100" height="50"/>
				<text x="25" y="30" font-family="Verdana">T(1)</text>
			</g>
			<g transform="translate(325, -60)">
				<text x="25" y="30" font-family="Verdana">.</text>
				<text x="25" y="40" font-family="Verdana">.</text>
				<text x="25" y="50" font-family="Verdana">.</text>
			</g>
			<text x="860" y="58" font-family="Verdana"> ..... 2^(n-1) calls</text>
		</g>
	</svg>