<svg xmlns="http://www.w3.org/2000/svg" width="1000" height="250">
		<g transform="translate(0, -70)">
			<g transform="translate(30, 100)">
				<rect x="0" y="0" fill="#EFF0F3" width="100" height="50"/>
				<text x="10" y="30" font-family="Verdana">Do(16384)</text>

				<rect x="15" y="70" fill="#EFF0F3" width="70" height="30"/>
				<text x="25" y="90" font-family="Verdana">16527</text>
			</g>
			
			<line x1="140" y1="125" x2="220" y2="125" stroke="black"/>
			<g transform="translate(230, 100)">
				<rect x="0" y="0" fill="#EFF0F3" width="100" height="50"/>
				<text x="20" y="30" font-family="Verdana">Do(128)</text>
				<text x="40" y="70" font-family="Verdana">+</text>
				<text x="20" y="100" font-family="Verdana">16384</text>

				<rect x="13" y="120" fill="#EFF0F3" width="70" height="30"/>
				<text x="23" y="140" font-family="Verdana">16527</text>
			</g>
			<line x1="232" y1="215" x2="140" y2="145" stroke="black" stroke-dasharray="5,5"/>


			<line x1="340" y1="125" x2="420" y2="125" stroke="black"/>
			<g transform="translate(430, 100)">
				<rect x="0" y="0" fill="#EFF0F3" width="100" height="50"/>
				<text x="20" y="30" font-family="Verdana">Do(11)</text>
				<text x="40" y="70" font-family="Verdana">+</text>
				<text x="30" y="100" font-family="Verdana">128</text>

				<rect x="23" y="120" fill="#EFF0F3" width="50" height="30"/>
				<text x="32" y="140" font-family="Verdana">143</text>
			</g>
			<line x1="442" y1="215" x2="340" y2="145" stroke="black" stroke-dasharray="5,5"/>


			<line x1="540" y1="125" x2="620" y2="125" stroke="black"/>
			<g transform="translate(630, 100)">
				<rect x="0" y="0" fill="#EFF0F3" width="100" height="50"/>
				<text x="30" y="30" font-family="Verdana">Do(3)</text>
				<text x="40" y="70" font-family="Verdana">+</text>
				<text x="36" y="100" font-family="Verdana">11</text>

				<rect x="33" y="120" fill="#EFF0F3" width="30" height="30"/>
				<text x="38" y="140" font-family="Verdana">15</text>
			</g>
			<line x1="652" y1="215" x2="540" y2="145" stroke="black" stroke-dasharray="5,5"/>


			<line x1="740" y1="125" x2="820" y2="125" stroke="black"/>
			<g transform="translate(830, 100)">
				<rect x="0" y="0" fill="#EFF0F3" width="100" height="50"/>
				<text x="30" y="30" font-family="Verdana">Do(1)</text>
				<text x="40" y="70" font-family="Verdana">+</text>
				<text x="42" y="100" font-family="Verdana">3</text>

				<rect x="33" y="120" fill="#EFF0F3" width="30" height="30"/>
				<text x="42" y="140" font-family="Verdana">4</text>			
			</g>
			<line x1="852" y1="215" x2="740" y2="145" stroke="black" stroke-dasharray="5,5"/>


			<line x1="940" y1="125" x2="950" y2="125" stroke="black"/>
			<g transform="translate(960, 110)">
				<rect x="0" y="0" fill="#EFF0F3" width="30" height="30"/>
				<text x="10" y="20" font-family="Verdana">1</text>
			</g>
		</g>

	</svg>