<svg xmlns="http://www.w3.org/2000/svg" width="800" height="900">
		<g transform="translate(0, 0)">	
			<g transform="translate(300, 20)">
				<rect x="0" y="0" fill="#EFF0F3" width="100" height="50"/>
				<text x="22" y="30" font-family="Verdana">f(5) =51</text>
			</g>
			
	
			<g transform="translate(420, 30)">
				<text x="0" y="20" font-family="Verdana">x</text>
				<rect x="20" y="0" fill="#EFF0F3" width="70" height="30"/>
	
				<text x="30" y="20" font-family="Verdana">1</text>
				<line x1="30" y1="20" x2="40" y2="10" stroke="black"/>
				<text x="50" y="20" font-family="Verdana">51</text>
				<text x="10" y="50" font-family="Verdana">local variable</text>
	
			</g>
	
			<line x1="350" y1="80" x2="170" y2="140" stroke="black"/>
			
			<g transform="translate(120, 150)">
				<rect x="0" y="0" fill="#EFF0F3" width="100" height="50"/>
				<text x="15" y="30" font-family="Verdana">f(1)*f(4)</text>
				<text x="12" y="117" font-family="Verdana">x +</text>

                <line x1="50" y1="70" x2="50" y2="100" stroke="black" stroke-width="2"/>
                <text x="112" y="117" font-family="Verdana">+</text>
                <text x="42" y="117" font-family="Verdana">15</text>
			</g>
	
			<line x1="350" y1="80" x2="290" y2="140" stroke="black"/>
			<g transform="translate(240, 150)">
				<rect x="0" y="0" fill="#EFF0F3" width="100" height="50"/>
				<text x="15" y="30" font-family="Verdana">f(2)*f(3)</text>
                <line x1="50" y1="70" x2="50" y2="100" stroke="black" stroke-width="2"/>
                <text x="42" y="117" font-family="Verdana">10</text>
                <text x="112" y="117" font-family="Verdana">+</text>

			</g>

			<line x1="350" y1="80" x2="410" y2="140" stroke="black"/>
			<!--function tag-->
			<g transform="translate(360, 150)">
				<rect x="0" y="0" fill="#EFF0F3" width="100" height="50"/>
				<text x="15" y="30" font-family="Verdana">f(3)*f(2)</text>
                <line x1="50" y1="70" x2="50" y2="100" stroke="black" stroke-width="2"/>
                <text x="42" y="117" font-family="Verdana">10</text>
                <text x="112" y="117" font-family="Verdana">+</text>

			</g>
	
			<line x1="350" y1="80" x2="530" y2="140" stroke="black"/>
			<g transform="translate(480, 150)">
				<rect x="0" y="0" fill="#EFF0F3" width="100" height="50"/>
				<text x="15" y="30" font-family="Verdana">f(4)*f(1)</text>
                <line x1="50" y1="70" x2="50" y2="100" stroke="black" stroke-width="2"/>
                <text x="42" y="117" font-family="Verdana">15</text>

			</g>
		</g>

		<g transform="translate(-170, 280)">	
			<g transform="translate(300, 20)">
				<rect x="0" y="0" fill="#EFF0F3" width="100" height="50"/>
				<text x="22" y="30" font-family="Verdana">f(4) =15</text>
			</g>
			
	
			<g transform="translate(420, 30)">
				<text x="0" y="20" font-family="Verdana">x</text>
				<rect x="20" y="0" fill="#EFF0F3" width="70" height="30"/>
	
				<text x="30" y="20" font-family="Verdana">1</text>
				<line x1="30" y1="20" x2="40" y2="10" stroke="black"/>
				<text x="50" y="20" font-family="Verdana">15</text>
				<text x="10" y="50" font-family="Verdana">local variable</text>
	
			</g>
	
			<line x1="350" y1="80" x2="230" y2="140" stroke="black"/>
			
			<g transform="translate(180, 150)">
				<rect x="0" y="0" fill="#EFF0F3" width="100" height="50"/>
				<text x="15" y="30" font-family="Verdana">f(1)*f(3)</text>
                <line x1="50" y1="70" x2="50" y2="100" stroke="black" stroke-width="2"/>
				<text x="12" y="117" font-family="Verdana">x +</text>
                <text x="45" y="117" font-family="Verdana">5</text>
                <text x="112" y="117" font-family="Verdana">+</text>
			</g>
	
			<line x1="350" y1="80" x2="350" y2="140" stroke="black"/>
			<g transform="translate(300, 150)">
				<rect x="0" y="0" fill="#EFF0F3" width="100" height="50"/>
				<text x="15" y="30" font-family="Verdana">f(2)*f(2)</text>
                <line x1="50" y1="70" x2="50" y2="100" stroke="black" stroke-width="2"/>
                <text x="45" y="117" font-family="Verdana">4</text>
                <text x="112" y="117" font-family="Verdana">+</text>

			</g>
	
			<line x1="350" y1="80" x2="470" y2="140" stroke="black"/>
			<g transform="translate(420, 150)">
				<rect x="0" y="0" fill="#EFF0F3" width="100" height="50"/>
				<text x="15" y="30" font-family="Verdana">f(3)*f(1)</text>
                <line x1="50" y1="70" x2="50" y2="100" stroke="black" stroke-width="2"/>
                <text x="45" y="117" font-family="Verdana">5</text>
			</g>
		</g>

		<g transform="translate(170, 280)">	
			<g transform="translate(300, 20)">
				<rect x="0" y="0" fill="#EFF0F3" width="100" height="50"/>
				<text x="22" y="30" font-family="Verdana">f(3) =5</text>
			</g>
			
	
			<g transform="translate(420, 30)">
				<text x="0" y="20" font-family="Verdana">x</text>
				<rect x="20" y="0" fill="#EFF0F3" width="70" height="30"/>
	
				<text x="30" y="20" font-family="Verdana">1</text>
				<line x1="30" y1="20" x2="40" y2="10" stroke="black"/>
				<text x="50" y="20" font-family="Verdana">5</text>
				<text x="10" y="50" font-family="Verdana">local variable</text>
	
			</g>
	
			<line x1="350" y1="80" x2="290" y2="140" stroke="black"/>
			
			<g transform="translate(240, 150)">
				<rect x="0" y="0" fill="#EFF0F3" width="100" height="50"/>
				<text x="15" y="30" font-family="Verdana">f(1)*f(2)</text>
                <line x1="50" y1="70" x2="50" y2="100" stroke="black" stroke-width="2"/>
                <text x="12" y="117" font-family="Verdana">x +</text>
                <text x="45" y="117" font-family="Verdana">2</text>
                <text x="112" y="117" font-family="Verdana">+</text>
			</g>
	
			<line x1="350" y1="80" x2="410" y2="140" stroke="black"/>
			<g transform="translate(360, 150)">
				<rect x="0" y="0" fill="#EFF0F3" width="100" height="50"/>
				<text x="15" y="30" font-family="Verdana">f(2)*f(1)</text>
                <line x1="50" y1="70" x2="50" y2="100" stroke="black" stroke-width="2"/>
                <text x="45" y="117" font-family="Verdana">2</text>
			</g>
		</g>

		<g transform="translate(-170, 560)">	
			<g transform="translate(300, 20)">
				<rect x="0" y="0" fill="#EFF0F3" width="100" height="50"/>
				<text x="22" y="30" font-family="Verdana">f(2)   =2	</text>
			</g>
			
	
			<g transform="translate(420, 30)">
				<text x="0" y="20" font-family="Verdana">x</text>
				<rect x="20" y="0" fill="#EFF0F3" width="70" height="30"/>
	
				<text x="30" y="20" font-family="Verdana">1</text>
				<line x1="30" y1="20" x2="40" y2="10" stroke="black"/>
				<text x="50" y="20" font-family="Verdana">2</text>
				<text x="10" y="50" font-family="Verdana">local variable</text>
	
			</g>
	
			<line x1="350" y1="80" x2="350" y2="140" stroke="black"/>
			
			<g transform="translate(300, 150)">
				<rect x="0" y="0" fill="#EFF0F3" width="100" height="50"/>
				<text x="15" y="30" font-family="Verdana">f(1)*f(1)</text>
                <line x1="50" y1="70" x2="50" y2="100" stroke="black" stroke-width="2"/>
                <text x="12" y="117" font-family="Verdana">x +</text>
                <text x="45" y="117" font-family="Verdana">1</text>
			</g>
		</g>
		<g transform="translate(170, 560)">	
			<g transform="translate(300, 20)">
				<rect x="0" y="0" fill="#EFF0F3" width="100" height="50"/>
				<text x="22" y="30" font-family="Verdana">f(1) =1</text>
			</g>
			
	
			<g transform="translate(420, 30)">
				<text x="0" y="20" font-family="Verdana">x</text>
				<rect x="20" y="0" fill="#EFF0F3" width="70" height="30"/>
	
				<text x="35" y="20" font-family="Verdana">1</text>
				<text x="10" y="50" font-family="Verdana">local variable</text>
	
			</g>
	
			<line x1="350" y1="80" x2="350" y2="140" stroke="black" stroke-width="2"/>
			<text x="345" y="157" font-family="Verdana">1</text>
		</g>
		
	</svg>