<svg xmlns="http://www.w3.org/2000/svg" width="800" height="400">
		<g>	
			<g transform="translate(300, 20)">
				<rect x="0" y="0" fill="#EFF0F3" width="100" height="50"/>
				<text x="22" y="30" font-family="Verdana">main()</text>
			</g>
			
	
			<g transform="translate(420, 30)">
				<text x="0" y="20" font-family="Verdana">x</text>
				<rect x="20" y="0" fill="#EFF0F3" width="70" height="30"/>
	
				<text x="30" y="20" font-family="Verdana">1</text>
				<line x1="30" y1="20" x2="40" y2="10" stroke="black"/>
				<text x="50" y="20" font-family="Verdana">230</text>
				<text x="10" y="50" font-family="Verdana">local variable</text>
	
			</g>
	
			<line x1="350" y1="80" x2="170" y2="140" stroke="black"/>
			
			<g transform="translate(120, 150)">
				<rect x="0" y="0" fill="#EFF0F3" width="100" height="50"/>
				<text x="22" y="30" font-family="Verdana">f1()</text>
                <line x1="35" y1="70" x2="35" y2="160" stroke="black" stroke-width="2"/>
                <text x="28" y="177" font-family="Verdana">26</text>
                <g transform="translate(-90, 60)">
                    <text x="0" y="20" font-family="Verdana">x: local</text>
                    <rect x="60" y="0" fill="#EFF0F3" width="60" height="30"/>
                    <text x="65" y="20" font-family="Verdana">25</text>
                    <line x1="65" y1="20" x2="85" y2="10" stroke="black"/>
                    <text x="90" y="20" font-family="Verdana">26</text>
                </g>
			</g>
	
			<line x1="350" y1="80" x2="290" y2="140" stroke="black"/>
			<g transform="translate(240, 150)">
				<rect x="0" y="0" fill="#EFF0F3" width="100" height="50"/>
				<text x="22" y="30" font-family="Verdana">f2()</text>
                <line x1="65" y1="70" x2="65" y2="160" stroke="black" stroke-width="2"/>
                <text x="58" y="177" font-family="Verdana">51</text>

                
                <g transform="translate(-60, 60)">
                    <text x="0" y="20" font-family="Verdana">x:static</text>
                    <rect x="60" y="0" fill="#EFF0F3" width="60" height="30"/>
                    
                    <text x="65" y="20" font-family="Verdana">50</text>
                    <line x1="65" y1="20" x2="85" y2="10" stroke="black"/>
                    <text x="90" y="20" font-family="Verdana">51</text>
                </g>
			</g>

			<line x1="350" y1="80" x2="410" y2="140" stroke="black"/>
			<!--function tag-->
			<g transform="translate(360, 150)">
				<rect x="0" y="0" fill="#EFF0F3" width="100" height="50"/>
				<text x="22" y="30" font-family="Verdana">f3()</text>
				<line x1="35" y1="70" x2="35" y2="160" stroke="black" stroke-width="2"/>
                <text x="28" y="177" font-family="Verdana">100</text>
                <g transform="translate(42, 60)">
                    <text x="0" y="20" font-family="Verdana">x:global</text>
                    <rect x="63" y="0" fill="#EFF0F3" width="57" height="30"/>
                    
                    <text x="65" y="20" font-family="Verdana">10</text>
                    <line x1="65" y1="20" x2="85" y2="10" stroke="black"/>
                    <text x="90" y="20" font-family="Verdana">100</text>
                </g>
			</g>
	
			<line x1="350" y1="80" x2="530" y2="140" stroke="black"/>
			<g transform="translate(480, 150)">
				<rect x="0" y="0" fill="#EFF0F3" width="100" height="50"/>
				<text x="22" y="30" font-family="Verdana">f2()</text>
                <line x1="65" y1="70" x2="65" y2="160" stroke="black" stroke-width="2"/>
                <text x="58" y="177" font-family="Verdana">52</text>
                
                <g transform="translate(70, 60)">
                    <text x="0" y="20" font-family="Verdana">x:static</text>
                    <rect x="60" y="0" fill="#EFF0F3" width="60" height="30"/>
                    
                    <text x="65" y="20" font-family="Verdana">51</text>
                    <line x1="65" y1="20" x2="85" y2="10" stroke="black"/>
                    <text x="90" y="20" font-family="Verdana">52</text>
                </g>
			</g>
		</g>

	</svg>