<svg xmlns="http://www.w3.org/2000/svg" width="800" height="550">
		<!--function tag-->
		<g>	
			<g transform="translate(300, 20)">
				<rect x="0" y="0" fill="#EFF0F3" width="100" height="50"/>
				<text x="22" y="30" font-family="Verdana">count(3)</text>
			</g>
			
	
			<g transform="translate(420, 30)">
				<text x="0" y="20" font-family="Verdana">d</text>
				<rect x="20" y="0" fill="#EFF0F3" width="120" height="30"/>
	
				<text x="30" y="20" font-family="Verdana">1</text>
				<line x1="30" y1="20" x2="40" y2="10" stroke="black"/>
				<text x="50" y="20" font-family="Verdana">2</text>
				<line x1="50" y1="20" x2="60" y2="10" stroke="black"/>
				<text x="70" y="20" font-family="Verdana">3</text>
				<line x1="70" y1="20" x2="80" y2="10" stroke="black"/>
				<text x="90" y="20" font-family="Verdana">4</text>
				<text x="30" y="50" font-family="Verdana">static memory</text>
	
			</g>
	
			<line x1="350" y1="80" x2="170" y2="140" stroke="black"/>
			
			<g transform="translate(120, 150)">
				<rect x="0" y="0" fill="#EFF0F3" width="100" height="50"/>
				<text x="22" y="30" font-family="Verdana">printf(n)</text>
				<text x="35" y="75" font-family="Verdana">3</text>
			</g>
	
			<line x1="350" y1="80" x2="290" y2="140" stroke="black"/>
			<line x1="350" y1="80" x2="410" y2="140" stroke="black"/>
			<!--function tag-->
			<g transform="translate(240, 150)">
				<rect x="0" y="0" fill="#EFF0F3" width="100" height="50"/>
				<text x="22" y="30" font-family="Verdana">printf(d)</text>
				<text x="35" y="75" font-family="Verdana">1</text>
			</g>
	
			<line x1="350" y1="80" x2="530" y2="140" stroke="black"/>
			<g transform="translate(480, 150)">
				<rect x="0" y="0" fill="#EFF0F3" width="100" height="50"/>
				<text x="22" y="30" font-family="Verdana">printf(d)</text>
				<text x="35" y="75" font-family="Verdana">4</text>		
			</g>
		</g>

		<g transform="translate(60, 130)">	
			<g transform="translate(300, 20)">
				<rect x="0" y="0" fill="#EFF0F3" width="100" height="50"/>
				<text x="22" y="30" font-family="Verdana">count(2)</text>
			</g>
	
			<line x1="350" y1="80" x2="170" y2="140" stroke="black"/>
			
			<g transform="translate(120, 150)">
				<rect x="0" y="0" fill="#EFF0F3" width="100" height="50"/>
				<text x="22" y="30" font-family="Verdana">printf(n)</text>
				<text x="35" y="75" font-family="Verdana">2</text>
			</g>
	
			<line x1="350" y1="80" x2="290" y2="140" stroke="black"/>
			<line x1="350" y1="80" x2="410" y2="140" stroke="black"/>
			<!--function tag-->
			<g transform="translate(240, 150)">
				<rect x="0" y="0" fill="#EFF0F3" width="100" height="50"/>
				<text x="22" y="30" font-family="Verdana">printf(d)</text>
				<text x="35" y="75" font-family="Verdana">2</text>
			</g>
	
			<line x1="350" y1="80" x2="530" y2="140" stroke="black"/>
			<g transform="translate(480, 150)">
				<rect x="0" y="0" fill="#EFF0F3" width="100" height="50"/>
				<text x="22" y="30" font-family="Verdana">printf(d)</text>
				<text x="35" y="75" font-family="Verdana">4</text>		
			</g>
		</g>

		<g transform="translate(120, 260)">	
			<g transform="translate(300, 20)">
				<rect x="0" y="0" fill="#EFF0F3" width="100" height="50"/>
				<text x="22" y="30" font-family="Verdana">count(1)</text>
			</g>
	
			<line x1="350" y1="80" x2="230" y2="140" stroke="black"/>
			
			<g transform="translate(180, 150)">
				<rect x="0" y="0" fill="#EFF0F3" width="100" height="50"/>
				<text x="22" y="30" font-family="Verdana">printf(n)</text>
				<text x="35" y="75" font-family="Verdana">1</text>
			</g>
	
			<line x1="350" y1="80" x2="350" y2="140" stroke="black"/>
			<!--function tag-->
			<g transform="translate(300, 150)">
				<rect x="0" y="0" fill="#EFF0F3" width="100" height="50"/>
				<text x="22" y="30" font-family="Verdana">printf(d)</text>
				<text x="35" y="75" font-family="Verdana">3</text>
			</g>
	
			<line x1="350" y1="80" x2="470" y2="140" stroke="black"/>
			<g transform="translate(420, 150)">
				<rect x="0" y="0" fill="#EFF0F3" width="100" height="50"/>
				<text x="22" y="30" font-family="Verdana">printf(d)</text>
				<text x="35" y="75" font-family="Verdana">4</text>		
			</g>
		</g>

	</svg>