<svg xmlns="http://www.w3.org/2000/svg" width="800" height="300">
		<g transform="translate(0, 0)">	
			<g transform="translate(300, 20)">
				<rect x="0" y="0" fill="#EFF0F3" width="100" height="50"/>
				<text x="22" y="30" font-family="Verdana">main()</text>
			</g>
			
	
			<g transform="translate(420, 30)">
				<text x="0" y="20" font-family="Verdana">x</text>
				<rect x="20" y="0" fill="#EFF0F3" width="30" height="30"/>
	
				<text x="30" y="20" font-family="Verdana">5</text>
				<text x="10" y="50" font-family="Verdana">global</text>
	
			</g>
	
			<line x1="350" y1="80" x2="170" y2="140" stroke="black"/>
			
			<g transform="translate(120, 150)">
				<rect x="0" y="0" fill="#EFF0F3" width="100" height="50"/>
				<text x="35" y="30" font-family="Verdana">f(5)</text>
				<line x1="50" y1="70" x2="50" y2="100" stroke="black" stroke-width="2"/>
                <text x="45" y="127" font-family="Verdana">6</text>
			</g>
			<g transform="translate(240, 180)">
				<text x="0" y="20" font-family="Verdana">x</text>
				<rect x="20" y="0" fill="#EFF0F3" width="30" height="30"/>
	
				<text x="30" y="20" font-family="Verdana">5</text>
				<text x="10" y="50" font-family="Verdana">local</text>
	
			</g>
	
	
			<line x1="350" y1="80" x2="530" y2="140" stroke="black"/>
			<g transform="translate(480, 150)">
				<rect x="0" y="0" fill="#EFF0F3" width="100" height="50"/>
				<text x="35" y="30" font-family="Verdana">f(5)</text>
                <line x1="50" y1="70" x2="50" y2="100" stroke="black" stroke-width="2"/>
                <text x="45" y="127" font-family="Verdana">6</text>
			</g>
			<g transform="translate(600, 180)">
				<text x="0" y="20" font-family="Verdana">x</text>
				<rect x="20" y="0" fill="#EFF0F3" width="30" height="30"/>
	
				<text x="30" y="20" font-family="Verdana">5</text>
				<text x="10" y="50" font-family="Verdana">local</text>
	
			</g>
		</g>
	</svg>