<svg xmlns="http://www.w3.org/2000/svg" width="600" height="750">
		<g transform="translate(-200, 0)">
			<g transform="translate(300, 20)">
				<rect x="0" y="0" fill="#EFF0F3" width="100" height="50"/>
				<text x="35" y="30" font-family="Verdana">f(3)</text>
			</g>
			

			<g transform="translate(430, 30)">
				<text x="0" y="20" font-family="Verdana">val</text>
				<rect x="30" y="0" fill="#EFF0F3" width="30" height="30"/>

				<text x="40" y="20" font-family="Verdana">3</text>
			</g>

			<line x1="350" y1="80" x2="350" y2="180" stroke="black"/>

			<line x1="350" y1="80" x2="650" y2="180" stroke="black"/>
			<g transform="translate(600, 200)">
				<rect x="0" y="0" fill="#EFF0F3" width="100" height="50"/>
				<text x="10" y="30" font-family="Verdana">return val</text>

				<g transform="translate(20, 60)">
					<rect x="0" y="0" fill="#EFF0F3" width="60" height="30"/>
					<text x="10" y="20" font-family="Verdana" font-size="12">never executed</text>
				</g>
			</g>
		</g>

		<g transform="translate(-200, 200)">
			<g transform="translate(300, 20)">
				<rect x="0" y="0" fill="#EFF0F3" width="100" height="50"/>
				<text x="35" y="30" font-family="Verdana">f(3)</text>
			</g>
			

			<g transform="translate(430, 30)">
				<text x="0" y="20" font-family="Verdana">val</text>
				<rect x="30" y="0" fill="#EFF0F3" width="30" height="30"/>

				<text x="40" y="20" font-family="Verdana">3/text&gt;
			</text></g>

			<line x1="350" y1="80" x2="350" y2="180" stroke="black"/>

			<line x1="350" y1="80" x2="650" y2="180" stroke="black"/>
			<g transform="translate(600, 200)">
				<rect x="0" y="0" fill="#EFF0F3" width="100" height="50"/>
				<text x="10" y="30" font-family="Verdana">return val</text>

				<g transform="translate(20, 60)">
					<rect x="0" y="0" fill="#EFF0F3" width="60" height="30"/>
					<text x="10" y="20" font-family="Verdana" font-size="12">never executed</text>
				</g>
			</g>
		</g>

		<g transform="translate(-200, 400)">
			<g transform="translate(300, 20)">
				<rect x="0" y="0" fill="#EFF0F3" width="100" height="50"/>
				<text x="35" y="30" font-family="Verdana">f(3)</text>
			</g>
			

			<g transform="translate(430, 30)">
				<text x="0" y="20" font-family="Verdana">val</text>
				<rect x="30" y="0" fill="#EFF0F3" width="30" height="30"/>

				<text x="40" y="20" font-family="Verdana">3</text>
			</g>

			<line x1="350" y1="80" x2="350" y2="180" stroke="black"/>

			<line x1="350" y1="80" x2="650" y2="180" stroke="black"/>
			<g transform="translate(600, 200)">
				<rect x="0" y="0" fill="#EFF0F3" width="100" height="50"/>
				<text x="10" y="30" font-family="Verdana">return val</text>

				<g transform="translate(20, 60)">
					<rect x="0" y="0" fill="#EFF0F3" width="60" height="30"/>
					<text x="10" y="20" font-family="Verdana" font-size="12">never executed</text>
				</g>
			</g>
		</g>

		<g transform="translate(-200, 600)">
			<g transform="translate(300, 20)">
				<rect x="0" y="0" fill="#EFF0F3" width="100" height="50"/>
				<text x="35" y="30" font-family="Verdana">f(3)</text>
			</g>
			

			<g transform="translate(430, 30)">
				<text x="0" y="20" font-family="Verdana">val</text>
				<rect x="30" y="0" fill="#EFF0F3" width="30" height="30"/>

				<text x="40" y="20" font-family="Verdana">3</text>
			</g>

			
			<g transform="translate(600, 200)">
				<rect x="0" y="0" fill="#EFF0F3" width="100" height="50"/>
				<text x="10" y="30" font-family="Verdana">return val</text>

				<g transform="translate(20, 60)">
					<rect x="0" y="0" fill="#EFF0F3" width="60" height="30"/>
					<text x="10" y="20" font-family="Verdana" font-size="12">executed</text>
				</g>
			</g>
		</g>
		<path d="M 90 450 C -20 400, -20 820, 150 680" stroke="black" fill="none"/>
		<g transform="translate(100, 800)">
			<rect x="0" y="0" fill="#EFF0F3" width="100" height="50"/>
			<text x="35" y="30" font-family="Verdana">f(3)</text>
		</g>
		
	</svg>