<svg xmlns="http://www.w3.org/2000/svg" width="800" height="450" style="background-color: #DDDDDB; font-family: sans-serif;">
	<g transform="translate(383, 235) rotate(-15)">
 		<path fill="#f3f4f8" d="M39,-49.3C51.6,-44.6,63.4,-34.5,65.5,-22.6C67.6,-10.6,59.9,3.2,55.7,18.7C51.4,34.2,50.7,51.5,42,55.8C33.3,60.1,16.7,51.5,4.1,45.8C-8.4,40.1,-16.8,37.4,-27.4,33.7C-38,30,-50.8,25.3,-55.2,16.8C-59.6,8.2,-55.7,-4.3,-54.4,-20.5C-53,-36.7,-54.3,-56.6,-45.7,-62.5C-37,-68.4,-18.5,-60.3,-2.6,-56.7C13.3,-53.1,26.5,-53.9,39,-49.3Z" transform="scale(4.5, 3.2)"/>
 	</g>
	<text x="320" y="160">binary search</text>
	<g transform="translate(203, 185)">
		<rect fill="none" width="360" height="80" stroke="#425164" stroke-width="3.25" rx="10"/>
		<g transform="translate(35, 20)">
			<rect fill="#ff6528" width="40" height="40" rx="10"/>
			<text y="23" x="19" fill="#fcfcfc" font-weight="bold"><tspan text-anchor="middle">45</tspan></text>
		</g>
		<g transform="translate(85, 20)">
			<rect fill="#ff6528" width="40" height="40" rx="10"/>
			<text y="23" x="19" fill="#fcfcfc" font-weight="bold"><tspan text-anchor="middle">55</tspan></text>
		</g>
		<g transform="translate(135, 20)">
			<rect fill="#ff6528" width="40" height="40" rx="10"/>
			<text y="23" x="19" fill="#fcfcfc" font-weight="bold"><tspan text-anchor="middle">60</tspan></text>
		</g>
		<g transform="translate(185, 20)">
			<rect fill="#ff6528" width="40" height="40" rx="10"/>
			<text y="23" x="19" fill="#fcfcfc" font-weight="bold"><tspan text-anchor="middle">65</tspan></text>
		</g>
		<g transform="translate(235, 20)">
			<rect fill="#ff6528" width="40" height="40" rx="10"/>
			<text y="23" x="19" fill="#fcfcfc" font-weight="bold"><tspan text-anchor="middle">70</tspan></text>
		</g>
		<g transform="translate(285, 20)">
			<rect fill="#ff6528" width="40" height="40" rx="10"/>
			<text y="23" x="19" fill="#fcfcfc" font-weight="bold"><tspan text-anchor="middle">80</tspan></text>
		</g>
	</g>
</svg>