<svg xmlns="http://www.w3.org/2000/svg" width="800" height="450" style="background-color: #DDDDDB; font-family: sans-serif;">
 	<g transform="translate(383, 235) rotate(-15)">
 		<path fill="#f3f4f8" d="M39,-49.3C51.6,-44.6,63.4,-34.5,65.5,-22.6C67.6,-10.6,59.9,3.2,55.7,18.7C51.4,34.2,50.7,51.5,42,55.8C33.3,60.1,16.7,51.5,4.1,45.8C-8.4,40.1,-16.8,37.4,-27.4,33.7C-38,30,-50.8,25.3,-55.2,16.8C-59.6,8.2,-55.7,-4.3,-54.4,-20.5C-53,-36.7,-54.3,-56.6,-45.7,-62.5C-37,-68.4,-18.5,-60.3,-2.6,-56.7C13.3,-53.1,26.5,-53.9,39,-49.3Z" transform="scale(4.5, 3.2)"/>
 	</g>
	<g transform="translate(203, 155)">
		<rect fill="none" width="80" height="140" stroke="#425164" stroke-width="3.25" style="stroke-dasharray: 0, 90, 120, 100, 30;"/>
		<text x="21" y="159.5">Insert</text>
		<g transform="translate(20, 85)">
			<rect fill="#ff6528" width="40" height="40" rx="10"/>
			<text y="23" x="19" fill="#fcfcfc" font-weight="bold"><tspan text-anchor="middle">12</tspan></text>
		</g>
		<g transform="translate(5, 50) scale(0.12, 0.12)">
			<path d="M1276 5261 c5 -4 63 -36 129 -71 1131 -594 1921 -1539 2143 -2565 57&#10;&#9;&#9;&#9;-263 66 -353 67 -670 0 -366 -23 -555 -103 -848 l-26 -97 -99 0 c-83 0 -113 5&#10;&#9;&#9;&#9;-189 30 -96 32 -137 37 -156 18 -17 -17 -15 -53 3 -68 8 -7 15 -22 15 -34 0&#10;&#9;&#9;&#9;-28 133 -148 339 -305 78 -60 99 -71 120 -66 23 6 200 160 276 240 17 18 54&#10;&#9;&#9;&#9;51 83 74 37 31 52 50 52 67 0 36 -33 44 -186 44 -74 0 -134 4 -134 9 0 5 11&#10;&#9;&#9;&#9;51 25 103 32 122 72 371 85 532 55 691 -133 1417 -525 2035 -331 522 -789 963&#10;&#9;&#9;&#9;-1347 1298 -158 94 -533 283 -563 283 -11 0 -15 -3 -9 -9z" transform="scale(0.1, -0.12)"/>
		</g>
		<g transform="translate(-30, -40)">
			<rect fill="#ff6528" width="40" height="40" rx="10"/>
			<text y="23" x="19" fill="#fcfcfc" font-weight="bold"><tspan text-anchor="middle">13</tspan></text>
		</g>
	</g>
	<g transform="translate(353, 155)">
		<rect fill="none" width="80" height="140" stroke="#425164" stroke-width="3.25" style="stroke-dasharray: 0, 90, 120, 100, 30;"/>
		<text x="18" y="159.5">Queue</text>
		<g transform="translate(20, 85)">
			<rect fill="#ff6528" width="40" height="40" rx="10"/>
			<text y="23" x="19" fill="#fcfcfc" font-weight="bold"><tspan text-anchor="middle">12</tspan></text>
		</g>
		<g transform="translate(20, 35)">
			<rect fill="#ff6528" width="40" height="40" rx="10"/>
			<text y="23" x="19" fill="#fcfcfc" font-weight="bold"><tspan text-anchor="middle">13</tspan></text>
		</g>
	</g>
	<g transform="translate(503, 155)">
		<rect fill="none" width="80" height="140" stroke="#425164" stroke-width="3.25" style="stroke-dasharray: 0, 90, 120, 100, 30;"/>
		<text x="9" y="0.5">Dequeue</text>
		<g transform="translate(13, 90) scale(0.12, 0.12)">
			<path d="M3341 4891 c-12 -12 -21 -27 -21 -34 0 -7 37 -57 81 -110 45 -54 80&#10;&#9;&#9;&#9;-99 78 -101 -2 -1 -67 -38 -144 -81 -312 -175 -599 -391 -859 -645 -340 -333&#10;&#9;&#9;&#9;-585 -662 -792 -1065 -255 -495 -397 -985 -445 -1535 -15 -169 -6 -545 16&#10;&#9;&#9;&#9;-730 23 -191 58 -376 70 -370 5 3 9 12 7 20 -128 874 0 1730 373 2495 272 557&#10;&#9;&#9;&#9;688 1054 1205 1439 162 121 365 249 524 331 l117 60 44 -50 c51 -57 79 -108&#10;&#9;&#9;&#9;96 -180 14 -55 43 -95 69 -95 19 0 50 30 50 50 0 7 7 18 15 24 18 13 39 133&#10;&#9;&#9;&#9;55 311 15 183 14 242 -8 254 -10 5 -119 12 -242 15 -124 3 -235 8 -247 12 -14&#10;&#9;&#9;&#9;4 -28 -1 -42 -15z" transform="scale(0.1, 0.12)"/>
		</g>
		<g transform="translate(20, 35)">
			<rect fill="#ff6528" width="40" height="40" rx="10"/>
			<text y="23" x="19" fill="#fcfcfc" font-weight="bold"><tspan text-anchor="middle">13</tspan></text>
		</g>
		<g transform="translate(70, 140)">
			<rect fill="#ff6528" width="40" height="40" rx="10"/>
			<text y="23" x="19" fill="#fcfcfc" font-weight="bold"><tspan text-anchor="middle">12</tspan></text>
		</g>
	</g>
</svg>